<?xml version="1.0" encoding="utf-8"?>
<!-- Generator: Adobe Illustrator 19.0.0, SVG Export Plug-In . SVG Version: 6.00 Build 0)  -->
<svg version="1.1" id="layer" xmlns="http://www.w3.org/2000/svg" xmlns:xlink="http://www.w3.org/1999/xlink" x="0px" y="0px"
	 viewBox="-153 -46 652 652" style="enable-background:new -153 -46 652 652;" xml:space="preserve">
<style type="text/css">
	.st0{fill:#E8002A;}
	.st1{fill:#3AAD2C;}
</style>
<g>
	<path class="st0" d="M77.6,215.5c-9.2-16.1-62.9-2.2-119.9,31.1c-57,33.3-95.7,73.5-86.5,89.6c7.9,13.9,48.7,5.5,96.2-18.3
		c2.1-1.2,2-3.7-0.8-2.8c-29.3,10.9-53.7,11.6-60,0c-8.4-15.4,18.2-46.5,59.4-69.6c41.2-23,81.4-29.3,89.8-13.9
		c3.8,7,0.3,17.4-8.6,28.8c0,0-0.1,0.1-0.1,0.2c-3.3,4.1-0.9,5.4,1.5,3.4C71.3,243.6,83.1,225.2,77.6,215.5"/>
	<path class="st1" d="M-7.9,321.8c-5.1-1.4-9.2-3.3-12.4-5.6l5.8-13.2c3.4,2.2,7,3.8,10.8,5c3.8,1.2,7.6,1.7,11.5,1.7
		c3.9,0,6.9-0.5,9-1.6c2.1-1.1,3.1-2.6,3.1-4.6c0-1.8-0.9-3.2-2.8-4.4c-1.9-1.1-5.5-2.3-10.7-3.4c-6.6-1.3-11.7-3-15.3-4.9
		c-3.6-1.9-6.2-4.2-7.7-6.9c-1.5-2.7-2.2-5.8-2.2-9.6c0-4.3,1.2-8.2,3.6-11.6c2.4-3.5,5.8-6.2,10.2-8.1c4.4-2,9.3-2.9,14.9-2.9
		c5,0,9.9,0.7,14.6,2.1c4.7,1.4,8.4,3.3,11.1,5.6L30,272.6c-3.1-2.2-6.3-3.8-9.7-5c-3.4-1.1-6.8-1.7-10.2-1.7c-3.3,0-6,0.6-8,1.9
		c-2,1.3-3,3-3,5.2c0,1.2,0.4,2.2,1.1,3c0.7,0.8,2.1,1.6,4,2.3c2,0.8,4.9,1.6,8.8,2.4c6.3,1.4,11.3,3.1,14.9,5
		c3.6,2,6.2,4.2,7.7,6.8c1.5,2.6,2.3,5.7,2.3,9.3c0,6.9-2.6,12.3-7.9,16.2c-5.3,3.9-12.7,5.9-22.3,5.9
		C2.4,323.9-2.8,323.2-7.9,321.8"/>
	<path class="st1" d="M99.3,272.8V323H81.9v-6.8c-1.4,2.4-3.5,4.2-6.2,5.6c-2.7,1.3-5.7,2-9,2c-4.2,0-8-1.1-11.3-3.2
		c-3.3-2.1-5.9-5.1-7.8-9.1c-1.8-3.9-2.8-8.5-2.8-13.6c0-5.2,1-9.8,2.9-13.9c1.9-4,4.5-7.2,7.8-9.4c3.3-2.2,7.1-3.4,11.2-3.4
		c3.2,0,6.2,0.7,8.9,2.1c2.7,1.4,4.8,3.3,6.3,5.7v-6.4H99.3z M79.4,307.2c1.7-2.2,2.5-5.3,2.5-9.4c0-4.2-0.8-7.3-2.5-9.5
		c-1.7-2.2-4.1-3.3-7.2-3.3c-3.1,0-5.5,1.1-7.2,3.4c-1.8,2.3-2.6,5.5-2.6,9.7c0,4,0.8,7.1,2.5,9.2c1.7,2.1,4.1,3.2,7.3,3.2
		C75.3,310.5,77.7,309.4,79.4,307.2"/>
	<path class="st1" d="M110.9,272.8v-1.4c0-6.8,1.7-12.1,5.2-15.9c3.5-3.8,8.6-5.7,15.2-5.7c3.8,0,6.9,0.5,9.2,1.4v13.7
		c-1.9-0.5-3.5-0.7-4.7-0.7c-2.1,0-3.8,0.6-5.2,1.8c-1.4,1.2-2,3.1-2,5.6v1.2h9.7v13.2h-9.7V323h-17.7v-37.1
		C110.9,285.9,111.2,272.8,110.9,272.8"/>
	<path class="st1" d="M198.2,272.8V323h-17.4v-6.8c-1.4,2.4-3.5,4.2-6.3,5.6c-2.7,1.3-5.7,2-9,2c-4.2,0-8-1.1-11.3-3.2
		c-3.3-2.1-5.9-5.1-7.8-9.1c-1.9-3.9-2.8-8.5-2.8-13.6c0-5.2,1-9.8,2.8-13.9c1.9-4,4.5-7.2,7.8-9.4c3.3-2.2,7.1-3.4,11.2-3.4
		c3.3,0,6.2,0.7,8.9,2.1c2.7,1.4,4.8,3.3,6.3,5.7v-6.4H198.2z M178.2,307.2c1.7-2.2,2.5-5.3,2.5-9.4c0-4.2-0.8-7.3-2.5-9.5
		c-1.7-2.2-4.1-3.3-7.2-3.3c-3.1,0-5.5,1.1-7.2,3.4c-1.7,2.3-2.6,5.5-2.6,9.7c0,4,0.8,7.1,2.5,9.2c1.7,2.1,4.1,3.2,7.3,3.2
		C174.2,310.5,176.6,309.4,178.2,307.2"/>
	<path class="st1" d="M245.7,272.7V289c-2.8-1.3-5.5-2-8.1-2c-7.4,0-11.1,3.6-11.1,10.8V323h-17.7v-35.8c0-5.4-0.3-10.2-0.8-14.4
		h16.6l1.1,8.4c1.2-3.1,3.1-5.5,5.7-7.1c2.6-1.6,5.5-2.5,8.8-2.5C242.5,271.6,244.4,272,245.7,272.7"/>
</g>
<rect x="250.8" y="272.8" class="st1" width="17.7" height="50.3"/>
<g>
	<path class="st1" d="M283.9,316.9c-4.7-4.6-7.1-10.9-7.1-18.9c0-5.3,1.1-9.9,3.5-13.9c2.3-4,5.6-7.1,9.7-9.4
		c4.2-2.2,9-3.3,14.5-3.3c3.6,0,7.2,0.5,10.8,1.6c3.5,1.1,6.3,2.6,8.4,4.4l-4.5,12.3c-1.7-1.4-3.8-2.6-6.1-3.4
		c-2.4-0.9-4.6-1.3-6.8-1.3c-3.6,0-6.4,1.1-8.4,3.2c-2,2.1-2.9,5.2-2.9,9.4c0,4.2,1,7.4,2.9,9.6c2,2.1,4.8,3.2,8.5,3.2
		c2.1,0,4.4-0.4,6.7-1.3c2.3-0.9,4.3-2,6.1-3.5l4.5,12.2c-2.2,1.9-5,3.4-8.5,4.5c-3.6,1.1-7.4,1.6-11.4,1.6
		C295.2,323.8,288.6,321.5,283.9,316.9"/>
	<path class="st1" d="M339.9,320.7c-4.1-2.1-7.3-5.1-9.5-9.1c-2.2-4-3.3-8.6-3.3-13.9c0-5.3,1.1-10,3.3-14c2.2-4,5.4-7,9.5-9.1
		c4.1-2.1,8.9-3.2,14.5-3.2c5.5,0,10.2,1.1,14.3,3.2c4.1,2.1,7.2,5.2,9.4,9.1c2.2,3.9,3.3,8.5,3.3,13.9c0,5.3-1.1,10-3.3,13.9
		c-2.2,3.9-5.3,7-9.4,9.1c-4.1,2.2-8.8,3.2-14.3,3.2C348.8,323.8,344,322.8,339.9,320.7 M363.9,297.6c0-4.4-0.8-7.6-2.4-9.6
		c-1.6-2.1-4-3.1-7.2-3.1c-3.3,0-5.7,1-7.3,3.1c-1.6,2.1-2.5,5.3-2.5,9.6c0,4.4,0.8,7.7,2.5,9.7c1.6,2.1,4.1,3.1,7.3,3.1
		C360.7,310.5,363.9,306.2,363.9,297.6"/>
	<path class="st1" d="M465.7,276.7c2.8,3.6,4.2,9,4.2,16.3v30h-17.7v-29.5c0-3-0.4-5.1-1.3-6.4c-0.9-1.3-2.4-2-4.4-2
		c-2.5,0-4.4,0.9-5.8,2.8c-1.4,1.9-2.1,4.4-2.1,7.8V323h-17.7v-29.5c0-3-0.5-5.1-1.4-6.4c-0.9-1.3-2.4-2-4.4-2
		c-2.5,0-4.4,0.9-5.7,2.8c-1.3,1.9-2,4.4-2,7.8V323h-17.7v-35.8c0-5.4-0.2-10.2-0.8-14.4h16.6l0.9,7c1.5-2.7,3.6-4.8,6.3-6.2
		c2.7-1.4,5.8-2.2,9.3-2.2c7.1,0,11.9,3,14.5,9.1c1.8-2.8,4.1-5,7-6.6c2.9-1.7,6-2.5,9.4-2.5C458.7,271.4,462.9,273.2,465.7,276.7"
		/>
</g>
<rect x="250.8" y="248.1" class="st1" width="17.7" height="16.1"/>
</svg>
